<svg width="194" height="54" viewBox="0 0 194 54" fill="none" xmlns="http://www.w3.org/2000/svg">
<path d="M72.1403 28.975C72.7403 28.975 73.2153 29.175 73.5653 29.575C73.9653 29.975 74.1653 30.475 74.1653 31.075C74.1653 31.675 73.9653 32.175 73.5653 32.575C73.2153 32.925 72.7403 33.1 72.1403 33.1H71.9903C70.5403 33.1 69.1653 32.825 67.8653 32.275C66.5653 31.725 65.4403 30.975 64.4903 30.025C63.5403 29.025 62.7653 27.9 62.1653 26.65C61.6153 25.4 61.3403 24 61.3403 22.45V10.075C61.3403 9.425 61.5403 8.925 61.9403 8.575C62.3403 8.225 62.8403 8.05 63.4403 8.05C64.0403 8.05 64.5153 8.225 64.8653 8.575C65.2153 8.925 65.3903 9.425 65.3903 10.075V22.45C65.3903 24.3 66.0153 25.85 67.2653 27.1C68.5653 28.35 70.1653 28.975 72.0653 28.975H72.1403ZM74.3903 23.05C74.3903 23.8 74.0903 24.45 73.4903 25C72.9403 25.5 72.2903 25.75 71.5403 25.75C70.8403 25.75 70.1903 25.5 69.5903 25C69.0403 24.45 68.7653 23.8 68.7653 23.05C68.7653 22.25 69.0403 21.575 69.5903 21.025C70.1903 20.475 70.8403 20.2 71.5403 20.2C72.2903 20.2 72.9403 20.475 73.4903 21.025C74.0903 21.575 74.3903 22.25 74.3903 23.05ZM71.6153 41.2C71.0653 41.2 70.5903 41 70.1903 40.6C69.7903 40.2 69.5903 39.725 69.5903 39.175C69.5903 38.625 69.7903 38.15 70.1903 37.75C70.5903 37.3 71.0653 37.075 71.6153 37.075H73.2653C74.8153 37.075 76.1403 36.575 77.2403 35.575C78.3403 34.425 78.8903 33.075 78.8903 31.525V13.675C78.8903 13.075 79.0653 12.6 79.4153 12.25C79.8153 11.85 80.2903 11.65 80.8403 11.65C81.4403 11.65 81.9403 11.85 82.3403 12.25C82.7403 12.6 82.9403 13.075 82.9403 13.675V31.525C82.9403 32.875 82.6653 34.125 82.1153 35.275C81.6153 36.425 80.9153 37.45 80.0153 38.35C79.1153 39.25 78.0903 39.95 76.9403 40.45C75.7903 40.95 74.5653 41.2 73.2653 41.2H71.6153ZM83.6903 39.1C83.6903 38.35 83.9403 37.7 84.4403 37.15C84.9403 36.6 85.6153 36.325 86.4653 36.325C87.2153 36.325 87.8403 36.6 88.3403 37.15C88.8903 37.7 89.1653 38.35 89.1653 39.1V39.175C89.1653 39.975 88.8903 40.65 88.3403 41.2C87.8403 41.7 87.2153 41.95 86.4653 41.95C85.6153 41.95 84.9403 41.7 84.4403 41.2C83.9403 40.65 83.6903 39.975 83.6903 39.175V39.1ZM109.993 22.3C110.293 23.85 110.943 25.175 111.943 26.275C113.293 27.975 115.068 29 117.268 29.35C117.818 29.4 118.243 29.65 118.543 30.1C118.843 30.5 118.918 31 118.768 31.6C118.718 32.15 118.468 32.6 118.018 32.95C117.568 33.3 117.093 33.4 116.593 33.25C115.043 32.95 113.618 32.45 112.318 31.75C111.018 31 109.868 30.025 108.868 28.825C108.418 28.325 108.068 27.85 107.818 27.4C107.568 27.85 107.193 28.325 106.693 28.825C105.743 30.025 104.618 31 103.318 31.75C102.018 32.45 100.618 32.95 99.118 33.25C98.5681 33.4 98.0681 33.3 97.6181 32.95C97.2181 32.6 96.9431 32.15 96.7931 31.6C96.6931 31 96.7931 30.5 97.0931 30.1C97.3931 29.65 97.8431 29.4 98.4431 29.35C100.643 29 102.393 27.975 103.693 26.275C104.693 25.175 105.343 23.85 105.643 22.3H100.168C99.618 22.3 99.143 22.125 98.7431 21.775C98.3931 21.375 98.2181 20.875 98.2181 20.275C98.2181 19.675 98.3931 19.175 98.7431 18.775C99.143 18.375 99.618 18.175 100.168 18.175H105.793V14.275C105.793 13.725 105.993 13.275 106.393 12.925C106.793 12.525 107.268 12.325 107.818 12.325C108.368 12.325 108.843 12.525 109.243 12.925C109.693 13.275 109.918 13.725 109.918 14.275V18.175H115.393C116.043 18.175 116.543 18.375 116.893 18.775C117.243 19.175 117.418 19.675 117.418 20.275C117.418 20.875 117.243 21.375 116.893 21.775C116.543 22.125 116.043 22.3 115.393 22.3H109.993ZM104.968 34.9C104.968 34.1 105.243 33.425 105.793 32.875C106.393 32.325 107.068 32.05 107.818 32.05C108.618 32.05 109.293 32.325 109.843 32.875C110.443 33.425 110.743 34.1 110.743 34.9C110.743 35.7 110.443 36.375 109.843 36.925C109.293 37.425 108.618 37.675 107.818 37.675C107.068 37.675 106.393 37.425 105.793 36.925C105.243 36.375 104.968 35.7 104.968 34.9ZM151.501 18.25V32.425H156.451C157.001 32.425 157.451 32.6 157.801 32.95C158.201 33.3 158.401 33.775 158.401 34.375C158.401 34.975 158.201 35.475 157.801 35.875C157.451 36.275 157.001 36.475 156.451 36.475H149.401H149.101H142.426C141.926 36.475 141.451 36.275 141.001 35.875C140.601 35.475 140.401 34.975 140.401 34.375C140.401 33.775 140.601 33.3 141.001 32.95C141.451 32.6 141.926 32.425 142.426 32.425H147.376V18.25H143.101C142.651 18.25 142.201 18.05 141.751 17.65C141.351 17.25 141.151 16.775 141.151 16.225C141.151 15.675 141.351 15.2 141.751 14.8C142.201 14.35 142.651 14.125 143.101 14.125H149.101H149.401H155.776C156.376 14.125 156.851 14.35 157.201 14.8C157.551 15.2 157.726 15.675 157.726 16.225C157.726 16.775 157.551 17.25 157.201 17.65C156.851 18.05 156.376 18.25 155.776 18.25H151.501ZM134.851 19.225C135.251 19.125 135.551 18.875 135.751 18.475C136.201 18.075 136.701 17.85 137.251 17.8C137.801 17.75 138.276 17.925 138.676 18.325C139.126 18.675 139.351 19.125 139.351 19.675C139.401 20.175 139.251 20.625 138.901 21.025C138.351 21.775 137.551 22.4 136.501 22.9C135.601 23.3 134.626 23.5 133.576 23.5H133.501C132.801 23.5 132.101 23.775 131.401 24.325C131.201 24.625 131.001 24.95 130.801 25.3C130.601 25.6 130.501 25.975 130.501 26.425V26.575C130.501 27.025 130.601 27.4 130.801 27.7L131.401 28.6C132.001 29.15 132.701 29.425 133.501 29.425H136.501C137.101 29.425 137.576 29.625 137.926 30.025C138.326 30.375 138.526 30.875 138.526 31.525C138.526 32.125 138.326 32.6 137.926 32.95C137.576 33.3 137.101 33.475 136.501 33.475H133.501C132.551 33.475 131.651 33.3 130.801 32.95C129.951 32.6 129.226 32.1 128.626 31.45C128.026 30.8 127.526 30.05 127.126 29.2C126.726 28.35 126.526 27.475 126.526 26.575V26.425C126.526 25.425 126.726 24.525 127.126 23.725C127.526 22.925 128.026 22.225 128.626 21.625V21.475C127.226 20.225 126.526 18.6 126.526 16.6V16.525C126.526 14.525 127.226 12.9 128.626 11.65C129.876 10.25 131.501 9.55 133.501 9.55H135.751C136.401 9.55 136.901 9.75 137.251 10.15C137.601 10.5 137.776 10.975 137.776 11.575C137.776 12.125 137.601 12.6 137.251 13C136.901 13.4 136.401 13.6 135.751 13.6H133.501C132.701 13.6 132.001 13.9 131.401 14.5C131.201 14.75 131.001 15.05 130.801 15.4C130.601 15.7 130.501 16.075 130.501 16.525V16.6C130.501 17.05 130.601 17.45 130.801 17.8C131.001 18.15 131.201 18.45 131.401 18.7C132.001 19.3 132.701 19.6 133.501 19.6H133.576C133.826 19.6 134.026 19.575 134.176 19.525C134.376 19.475 134.601 19.375 134.851 19.225ZM131.176 40.525C130.676 40.525 130.201 40.35 129.751 40C129.351 39.6 129.151 39.1 129.151 38.5C129.151 37.9 129.351 37.425 129.751 37.075C130.201 36.675 130.676 36.475 131.176 36.475H136.426C137.026 36.475 137.501 36.675 137.851 37.075C138.251 37.425 138.451 37.9 138.451 38.5C138.451 39.1 138.251 39.6 137.851 40C137.501 40.35 137.026 40.525 136.426 40.525H131.176ZM169.83 12.55C168.33 11.65 167.18 10.35 166.38 8.65C166.08 8.15 166.03 7.675 166.23 7.225C166.43 6.725 166.755 6.35 167.205 6.1C167.705 5.8 168.205 5.75 168.705 5.95C169.255 6.1 169.655 6.425 169.905 6.925C170.355 7.875 171.005 8.575 171.855 9.025C172.705 9.475 173.73 9.7 174.93 9.7H179.655C181.555 9.7 183.355 10.1 185.055 10.9C186.755 11.65 188.205 12.65 189.405 13.9C190.755 15.15 191.805 16.625 192.555 18.325C193.305 20.025 193.68 21.85 193.68 23.8V29.8C193.68 30.25 193.455 30.7 193.005 31.15C192.605 31.55 192.13 31.75 191.58 31.75C190.98 31.75 190.505 31.55 190.155 31.15C189.805 30.7 189.63 30.25 189.63 29.8V23.8C189.63 22.4 189.355 21.1 188.805 19.9C188.255 18.7 187.53 17.65 186.63 16.75C185.73 15.8 184.68 15.075 183.48 14.575C182.33 14.075 181.055 13.825 179.655 13.825H174.93C172.93 13.825 171.23 13.4 169.83 12.55ZM181.83 31.6C181.28 31.8 180.755 31.8 180.255 31.6C179.805 31.35 179.455 30.975 179.205 30.475C179.005 29.975 179.005 29.475 179.205 28.975C179.455 28.425 179.805 28.05 180.255 27.85C180.905 27.6 181.505 27.15 182.055 26.5C182.505 25.9 182.73 25.2 182.73 24.4C182.73 23.4 182.355 22.525 181.605 21.775C180.855 21.025 179.98 20.65 178.98 20.65C177.83 20.65 176.955 21.025 176.355 21.775C175.555 22.375 175.155 23.25 175.155 24.4V36.475C175.155 37.525 175.53 38.425 176.28 39.175C177.08 39.925 177.955 40.3 178.905 40.3H179.73C180.28 40.3 180.78 40.2 181.23 40C181.68 39.8 182.055 39.55 182.355 39.25C183.105 38.45 183.48 37.525 183.48 36.475C183.48 35.925 183.655 35.475 184.005 35.125C184.355 34.725 184.83 34.525 185.43 34.525C186.03 34.525 186.505 34.725 186.855 35.125C187.255 35.475 187.455 35.925 187.455 36.475C187.455 37.575 187.255 38.6 186.855 39.55C186.455 40.5 185.905 41.3 185.205 41.95C184.455 42.75 183.605 43.35 182.655 43.75C181.705 44.1 180.73 44.275 179.73 44.275H178.905C176.705 44.275 174.88 43.5 173.43 41.95C171.93 40.5 171.18 38.675 171.18 36.475V24.325C171.18 23.225 171.38 22.225 171.78 21.325C172.18 20.425 172.73 19.575 173.43 18.775C174.18 18.125 175.005 17.6 175.905 17.2C176.805 16.75 177.78 16.525 178.83 16.525C179.93 16.525 180.93 16.75 181.83 17.2C182.78 17.6 183.63 18.175 184.38 18.925C185.88 20.475 186.63 22.3 186.63 24.4C186.63 25.2 186.505 25.975 186.255 26.725C186.005 27.475 185.68 28.125 185.28 28.675C184.38 30.075 183.23 31.05 181.83 31.6Z" fill="#272727"/>
<path d="M25.501 49C39.032 49 50.001 38.031 50.001 24.5C50.001 10.969 39.032 0 25.501 0C11.97 0 1.00101 10.969 1.00101 24.5C1.00101 38.031 11.97 49 25.501 49Z" fill="#272727"/>
<g filter="url(#filter0_d)">
<path d="M44.0648 12.5313L22.6338 5.4443L12.1298 37.2082L33.5609 44.2952L44.0648 12.5313Z" fill="#C41818"/>
<path d="M44.0648 12.5313L22.6338 5.4443L12.1298 37.2082L33.5609 44.2952L44.0648 12.5313Z" stroke="black" stroke-width="1.5"/>
</g>
<path d="M34.4638 24.9524L33.3655 28.5693L34.6285 28.9528C34.7689 28.9954 34.8701 29.0749 34.9323 29.1914C35.0073 29.3117 35.0215 29.4484 34.975 29.6015C34.9285 29.7546 34.8388 29.8666 34.7057 29.9377C34.5854 30.0127 34.4551 30.0288 34.3147 29.9862L32.5158 29.44L32.4393 29.4167L30.7361 28.8996C30.6085 28.8608 30.5028 28.773 30.419 28.636C30.3479 28.503 30.3356 28.3599 30.3821 28.2068C30.4286 28.0537 30.5164 27.948 30.6456 27.8897C30.7875 27.8353 30.9223 27.8274 31.0499 27.8661L32.3129 28.2497L33.4112 24.6327L32.3204 24.3015C32.2056 24.2667 32.1062 24.1808 32.0224 24.0438C31.9513 23.9108 31.9371 23.7741 31.9797 23.6337C32.0223 23.4934 32.1102 23.3877 32.2432 23.3166C32.3929 23.2367 32.5252 23.2141 32.64 23.249L34.171 23.7139L34.2475 23.7371L35.8742 24.231C36.0273 24.2775 36.1311 24.3717 36.1855 24.5137C36.2438 24.6429 36.2517 24.7776 36.209 24.918C36.1664 25.0583 36.085 25.1659 35.9647 25.2409C35.8444 25.3158 35.7077 25.3301 35.5546 25.2836L34.4638 24.9524ZM30.1398 23.9111C30.2496 23.9166 30.3455 23.876 30.4275 23.7894C30.5733 23.7222 30.7183 23.7036 30.8626 23.7334C31.0068 23.7633 31.1144 23.8447 31.1855 23.9778C31.2732 24.102 31.2957 24.2342 31.2531 24.3746C31.2271 24.506 31.154 24.6092 31.0337 24.6842C30.8353 24.8329 30.5827 24.9304 30.276 24.9767C30.0154 25.009 29.7511 24.9845 29.4832 24.9031L29.4641 24.8973C29.2855 24.8431 29.0855 24.859 28.8643 24.9451C28.79 25.0062 28.7138 25.0736 28.6357 25.1474C28.5614 25.2085 28.5068 25.2964 28.4719 25.4112L28.4603 25.4495C28.4255 25.5643 28.4219 25.6678 28.4497 25.7598L28.5331 26.0359C28.6436 26.2228 28.8009 26.3472 29.005 26.4091L29.7705 26.6416C29.9236 26.6881 30.0293 26.7759 30.0876 26.9051C30.1625 27.0254 30.1748 27.1685 30.1245 27.3343C30.078 27.4874 29.9902 27.5931 29.861 27.6514C29.7445 27.7136 29.6098 27.7215 29.4567 27.675L28.6912 27.4426C28.4488 27.3689 28.2327 27.2546 28.0429 27.0994C27.8532 26.9442 27.7069 26.7605 27.6042 26.5481C27.5014 26.3358 27.432 26.1057 27.3958 25.8578C27.3596 25.6099 27.3763 25.3712 27.4461 25.1415L27.4577 25.1032C27.5352 24.8481 27.6559 24.6339 27.82 24.4608C27.984 24.2876 28.1658 24.1478 28.3654 24.0412L28.377 24.0029C28.1167 23.5755 28.064 23.1066 28.2189 22.5963L28.2247 22.5771C28.3797 22.0668 28.6842 21.7064 29.1383 21.4959C29.5657 21.2355 30.0346 21.1828 30.5449 21.3378L31.119 21.5121C31.2849 21.5625 31.397 21.6523 31.4553 21.7814C31.5175 21.8979 31.5253 22.0326 31.4788 22.1857C31.4362 22.3261 31.3548 22.4337 31.2345 22.5087C31.1142 22.5836 30.9711 22.5959 30.8052 22.5455L30.2311 22.3712C30.027 22.3092 29.8251 22.3315 29.6255 22.4381C29.5551 22.4864 29.4809 22.5475 29.4027 22.6213C29.3284 22.6823 29.2739 22.7703 29.239 22.8851L29.2332 22.9042C29.1983 23.0191 29.1928 23.1289 29.2168 23.2337C29.2407 23.3385 29.2685 23.4305 29.3001 23.5098C29.4067 23.7094 29.5621 23.8402 29.7662 23.9022L29.7854 23.908C29.8492 23.9274 29.9021 23.9365 29.9443 23.9353C29.9992 23.9381 30.0643 23.93 30.1398 23.9111ZM27.5517 29.0613C27.4241 29.0226 27.3165 28.9411 27.2288 28.8169C27.1577 28.6839 27.1454 28.5408 27.1919 28.3877C27.2384 28.2346 27.3262 28.1289 27.4554 28.0706C27.6012 28.0034 27.7379 27.9892 27.8655 28.0279L29.2051 28.4347C29.3582 28.4812 29.4639 28.569 29.5222 28.6982C29.5972 28.8185 29.6114 28.9552 29.5649 29.1083C29.5184 29.2614 29.4287 29.3735 29.2956 29.4445C29.1792 29.5067 29.0444 29.5146 28.8913 29.4681L27.5517 29.0613ZM27.155 31.5954C26.842 31.2495 26.6492 30.8287 26.5768 30.3329C26.539 30.1821 26.5631 30.057 26.649 29.9577C26.7387 29.8456 26.8507 29.7751 26.9849 29.7462C27.1357 29.7084 27.2672 29.7343 27.3793 29.8241C27.508 29.905 27.5849 30.0189 27.6099 30.1659C27.6511 30.4431 27.7628 30.6721 27.9448 30.8528C28.1268 31.0335 28.3709 31.1703 28.6771 31.2633L29.8828 31.6294C30.3676 31.7766 30.7959 32.0181 31.1677 32.354C31.5433 32.6771 31.8358 33.0446 32.0452 33.4565C32.2928 33.8801 32.4464 34.3378 32.5061 34.8297C32.5657 35.3215 32.52 35.8163 32.3689 36.3138L31.9041 37.8448C31.8692 37.9596 31.7769 38.057 31.6272 38.137C31.4942 38.2081 31.3575 38.2223 31.2171 38.1797C31.064 38.1332 30.9583 38.0453 30.9 37.9162C30.8456 37.7742 30.8358 37.6458 30.8706 37.531L31.3355 36C31.444 35.6428 31.4746 35.2898 31.4272 34.941C31.3798 34.5922 31.2762 34.2681 31.1163 33.9687C30.9602 33.6566 30.7485 33.3902 30.481 33.1697C30.2263 32.953 29.9204 32.7904 29.5631 32.6819L28.3575 32.3158C27.8472 32.1609 27.4463 31.9207 27.155 31.5954ZM28.7409 37.386C28.5851 37.3944 28.4511 37.3537 28.339 37.2639C28.2436 37.1653 28.1833 37.0425 28.1583 36.8955C28.146 36.7524 28.1847 36.6249 28.2745 36.5128C28.3809 36.3918 28.4993 36.3232 28.6296 36.3071C28.8148 36.2936 29.0028 36.2253 29.1935 36.1021C29.3548 35.9838 29.4664 35.8227 29.5284 35.6185C29.6059 35.3634 29.578 35.111 29.4447 34.8616C29.3115 34.6121 29.1173 34.4486 28.8621 34.3711C28.5687 34.282 28.3164 34.3099 28.1051 34.4548C27.8545 34.5459 27.6847 34.7382 27.5956 35.0316L26.66 38.1127C26.5786 38.3806 26.6046 38.6393 26.7378 38.8888C26.8839 39.1422 27.0781 39.3056 27.3205 39.3792L27.531 39.4432C27.6713 39.4858 27.8067 39.499 27.937 39.4828C28.0673 39.4667 28.1824 39.4319 28.2822 39.3786C28.5355 39.2326 28.7029 39.0256 28.7842 38.7577C28.8268 38.6174 28.9064 38.5161 29.0228 38.4539C29.1431 38.379 29.2798 38.3648 29.4329 38.4112C29.586 38.4577 29.6917 38.5456 29.75 38.6748C29.8249 38.795 29.8411 38.9254 29.7985 39.0657C29.7133 39.3464 29.5828 39.5924 29.4071 39.8038C29.2315 40.0153 29.0291 40.1768 28.8002 40.2884C28.5468 40.4344 28.2834 40.5217 28.01 40.5501C27.7405 40.5658 27.4782 40.5349 27.223 40.4574L27.0125 40.3935C26.4511 40.2231 26.0455 39.8839 25.7956 39.3761C25.5252 38.8899 25.4753 38.3661 25.6457 37.8047L26.5871 34.7045C26.6723 34.4238 26.8008 34.1841 26.9726 33.9855C27.1444 33.7868 27.3506 33.6126 27.5912 33.4627C27.833 33.3549 28.0842 33.2849 28.3448 33.2526C28.6093 33.2075 28.8755 33.2256 29.1434 33.3069C29.4241 33.3922 29.6619 33.5271 29.8566 33.7116C30.068 33.8873 30.2404 34.0999 30.3736 34.3494C30.6363 34.8611 30.6863 35.3849 30.5236 35.9207C30.4616 36.1248 30.3696 36.3129 30.2477 36.4849C30.1258 36.6569 29.9925 36.7976 29.8479 36.9069C29.5097 37.1944 29.1408 37.3541 28.7409 37.386Z" fill="#272727"/>
<g filter="url(#filter1_d)">
<path d="M22.6338 5.4443C21.5869 11.178 23.0952 16.888 29.9842 19.1661C36.8731 21.4442 41.4883 17.7592 44.0661 12.5318" stroke="black" stroke-width="1.5"/>
</g>
<g filter="url(#filter2_d)">
<path d="M19.705 28.9625C24.5503 27.5521 27.3349 22.4808 25.9246 17.6355C24.5142 12.7902 19.4429 10.0056 14.5976 11.4159C9.75228 12.8263 6.96769 17.8976 8.37805 22.7429C9.78842 27.5882 14.8597 30.3728 19.705 28.9625Z" fill="#D8B166" stroke="black" stroke-width="1.2"/>
<path opacity="0.2" fill-rule="evenodd" clip-rule="evenodd" d="M12.8284 21.9305C13.0743 21.8589 13.2187 21.6121 13.1509 21.3791C13.0831 21.1462 12.8288 21.0154 12.5829 21.087C12.337 21.1585 12.1927 21.4054 12.2605 21.6383C12.3283 21.8713 12.5826 22.0021 12.8284 21.9305Z" fill="black"/>
<path opacity="0.2" fill-rule="evenodd" clip-rule="evenodd" d="M21.7322 19.3387C21.9781 19.2671 22.1225 19.0203 22.0547 18.7874C21.9869 18.5544 21.7326 18.4236 21.4867 18.4952C21.2408 18.5667 21.0965 18.8136 21.1643 19.0465C21.2321 19.2795 21.4864 19.4103 21.7322 19.3387Z" fill="black"/>
<path fill-rule="evenodd" clip-rule="evenodd" d="M13.0874 20.3302C13.4562 20.2229 13.6728 19.8526 13.571 19.5032C13.4693 19.1538 13.0879 18.9575 12.7191 19.0649C12.3503 19.1722 12.1337 19.5425 12.2354 19.8919C12.3371 20.2413 12.7186 20.4376 13.0874 20.3302Z" fill="black"/>
<path fill-rule="evenodd" clip-rule="evenodd" d="M20.8042 18.0841C21.173 17.9768 21.3895 17.6065 21.2878 17.2571C21.1861 16.9077 20.8047 16.7114 20.4359 16.8188C20.0671 16.9262 19.8505 17.2964 19.9522 17.6458C20.0539 17.9953 20.4354 18.1915 20.8042 18.0841Z" fill="black"/>
<path fill-rule="evenodd" clip-rule="evenodd" d="M18.0994 23.4465C18.919 23.2079 19.4002 22.3851 19.1742 21.6086C18.9481 20.8322 18.1005 20.3961 17.2809 20.6347C16.4613 20.8733 15.9801 21.6961 16.2061 22.4726C16.4321 23.249 17.2798 23.6851 18.0994 23.4465Z" fill="black"/>
<path fill-rule="evenodd" clip-rule="evenodd" d="M17.2196 22.6353C17.4654 22.5638 17.6098 22.3169 17.542 22.084C17.4742 21.851 17.2199 21.7202 16.974 21.7918C16.7281 21.8634 16.5838 22.1102 16.6516 22.3432C16.7194 22.5761 16.9737 22.7069 17.2196 22.6353Z" fill="#D8B166"/>
<path fill-rule="evenodd" clip-rule="evenodd" d="M18.4066 22.2896C18.6524 22.2181 18.7968 21.9712 18.729 21.7383C18.6612 21.5053 18.4069 21.3745 18.161 21.4461C17.9151 21.5177 17.7708 21.7645 17.8386 21.9975C17.9064 22.2304 18.1607 22.3612 18.4066 22.2896Z" fill="#D8B166"/>
<path d="M19.2158 10.2287C19.1746 10.2823 19.1129 10.4361 19.1358 10.7617C19.1576 11.0711 19.2508 11.4521 19.4055 11.8592C19.7166 12.6783 20.2225 13.4668 20.6707 13.8636C21.6281 14.5951 22.8597 15.1212 23.9271 15.3563C24.4637 15.4746 24.93 15.5128 25.2802 15.4812C25.6568 15.4472 25.774 15.346 25.791 15.3239C25.856 15.2393 25.9518 15.0011 25.9825 14.5733C26.0115 14.1685 25.9766 13.6682 25.8598 13.1371C25.6241 12.0649 25.078 10.963 24.1875 10.2786C23.302 9.5979 22.1846 9.40409 21.1822 9.49679C20.6838 9.54279 20.2325 9.6585 19.8769 9.8059C19.5066 9.9595 19.2965 10.1237 19.2158 10.2287Z" fill="#D8B166" stroke="black" stroke-width="1.2"/>
<path d="M9.56921 13.0365C9.63271 13.0597 9.76741 13.1563 9.92281 13.4434C10.0705 13.7161 10.1963 14.0876 10.2843 14.5141C10.4613 15.3722 10.4577 16.309 10.2924 16.8845C9.87721 18.0155 9.12031 19.1204 8.34588 19.8917C7.95655 20.2794 7.58356 20.5619 7.27115 20.7232C6.93508 20.8966 6.78193 20.8741 6.75577 20.8646C6.65552 20.8281 6.44682 20.6786 6.1913 20.334C5.94953 20.008 5.71056 19.5672 5.52406 19.0564C5.14753 18.0252 5.01696 16.8023 5.40096 15.7469C5.78284 14.6973 6.62171 13.9341 7.51725 13.4743C7.96244 13.2457 8.40536 13.101 8.78452 13.0346C9.17941 12.9654 9.44481 12.9913 9.56921 13.0365Z" fill="#D8B166" stroke="black" stroke-width="1.2"/>
</g>
<defs>
<filter id="filter0_d" x="7.18225" y="4.49675" width="41.8301" height="48.746" filterUnits="userSpaceOnUse" color-interpolation-filters="sRGB">
<feFlood flood-opacity="0" result="BackgroundImageFix"/>
<feColorMatrix in="SourceAlpha" type="matrix" values="0 0 0 0 0 0 0 0 0 0 0 0 0 0 0 0 0 0 127 0"/>
<feOffset dy="4"/>
<feGaussianBlur stdDeviation="2"/>
<feColorMatrix type="matrix" values="0 0 0 0 0 0 0 0 0 0 0 0 0 0 0 0 0 0 0.25 0"/>
<feBlend mode="normal" in2="BackgroundImageFix" result="effect1_dropShadow"/>
<feBlend mode="normal" in="SourceGraphic" in2="effect1_dropShadow" result="shape"/>
</filter>
<filter id="filter1_d" x="17.5831" y="5.30959" width="31.1557" height="23.2938" filterUnits="userSpaceOnUse" color-interpolation-filters="sRGB">
<feFlood flood-opacity="0" result="BackgroundImageFix"/>
<feColorMatrix in="SourceAlpha" type="matrix" values="0 0 0 0 0 0 0 0 0 0 0 0 0 0 0 0 0 0 127 0"/>
<feOffset dy="4"/>
<feGaussianBlur stdDeviation="2"/>
<feColorMatrix type="matrix" values="0 0 0 0 0 0 0 0 0 0 0 0 0 0 0 0 0 0 0.25 0"/>
<feBlend mode="normal" in2="BackgroundImageFix" result="effect1_dropShadow"/>
<feBlend mode="normal" in="SourceGraphic" in2="effect1_dropShadow" result="shape"/>
</filter>
<filter id="filter2_d" x="0.569458" y="8.87516" width="30.3217" height="29.0539" filterUnits="userSpaceOnUse" color-interpolation-filters="sRGB">
<feFlood flood-opacity="0" result="BackgroundImageFix"/>
<feColorMatrix in="SourceAlpha" type="matrix" values="0 0 0 0 0 0 0 0 0 0 0 0 0 0 0 0 0 0 127 0"/>
<feOffset dy="4"/>
<feGaussianBlur stdDeviation="2"/>
<feColorMatrix type="matrix" values="0 0 0 0 0 0 0 0 0 0 0 0 0 0 0 0 0 0 0.25 0"/>
<feBlend mode="normal" in2="BackgroundImageFix" result="effect1_dropShadow"/>
<feBlend mode="normal" in="SourceGraphic" in2="effect1_dropShadow" result="shape"/>
</filter>
</defs>
</svg>
